<?xml version="1.0" standalone="no"?>
<!DOCTYPE svg PUBLIC "-//W3C//DTD SVG 20010904//EN"
 "http://www.w3.org/TR/2001/REC-SVG-20010904/DTD/svg10.dtd">
<svg version="1.0" xmlns="http://www.w3.org/2000/svg"
 width="64.000000pt" height="64.000000pt" viewBox="0 0 64.000000 64.000000"
 preserveAspectRatio="xMidYMid meet">
<metadata>
Created by potrace 1.16, written by Peter Selinger 2001-2019
</metadata>
<g transform="translate(0.000000,64.000000) scale(0.100000,-0.100000)"
fill="#FFFFFF" stroke="none">
<path d="M190 599 c-60 -27 -117 -83 -146 -144 -19 -39 -24 -67 -24 -125 0
-88 22 -145 78 -204 57 -59 122 -86 212 -86 90 0 155 27 212 86 56 59 78 116
78 204 0 58 -5 86 -24 125 -29 61 -86 117 -146 144 -62 28 -178 28 -240 0z
m225 -28 c100 -45 155 -131 155 -240 0 -79 -22 -132 -75 -186 -54 -53 -107
-75 -186 -75 -151 0 -259 108 -259 260 0 107 49 188 142 234 65 32 161 35 223
7z"/>
<path d="M203 539 c-87 -43 -127 -117 -121 -224 3 -58 9 -80 31 -113 28 -43
60 -56 56 -24 -3 33 1 41 32 63 30 21 31 21 70 4 37 -17 42 -17 75 -2 46 22
48 22 82 -13 21 -20 28 -36 25 -50 -10 -36 25 -22 54 22 34 51 44 162 21 218
-19 44 -65 100 -84 100 -21 0 -17 -24 7 -46 35 -32 59 -90 59 -143 0 -47 -16
-102 -29 -101 -3 1 -24 16 -45 35 -30 27 -36 38 -28 48 6 7 11 39 11 72 -1 47
-6 63 -24 81 -40 40 -120 41 -171 2 -18 -13 -28 -136 -13 -154 10 -12 5 -20
-27 -49 -21 -19 -42 -34 -45 -35 -13 -1 -29 54 -29 101 0 62 21 109 67 150 45
39 75 50 135 51 34 0 48 4 48 14 0 23 -106 18 -157 -7z m137 -139 c33 0 38 -3
43 -26 5 -30 -25 -89 -54 -105 -26 -13 -52 2 -77 44 -31 54 -11 104 36 91 8
-2 31 -4 52 -4z"/>
</g>
</svg>
