<?xml version="1.0" standalone="no"?>
<!DOCTYPE svg PUBLIC "-//W3C//DTD SVG 20010904//EN"
 "http://www.w3.org/TR/2001/REC-SVG-20010904/DTD/svg10.dtd">
<svg version="1.0" xmlns="http://www.w3.org/2000/svg"
 width="64.000000pt" height="64.000000pt" viewBox="0 0 64.000000 64.000000"
 preserveAspectRatio="xMidYMid meet">
<metadata>
Created by potrace 1.16, written by Peter Selinger 2001-2019
</metadata>
<g transform="translate(0.000000,64.000000) scale(0.100000,-0.100000)"
fill="#FFFFFF" stroke="none">
<path d="M240 600 l0 -40 -90 0 -90 0 0 -30 c0 -16 5 -30 10 -30 6 0 10 -83
10 -230 0 -223 -1 -230 -20 -230 -11 0 -20 -4 -20 -10 0 -6 100 -10 280 -10
240 0 281 2 286 15 11 28 -6 66 -37 83 -58 33 -64 39 -51 54 6 8 11 40 11 73
-1 47 -5 62 -25 82 -21 21 -24 33 -24 98 0 43 4 75 10 75 6 0 10 14 10 30 l0
30 -100 0 -100 0 0 25 c0 14 -4 25 -10 25 -5 0 -10 -11 -10 -25 0 -14 -4 -25
-10 -25 -5 0 -10 18 -10 40 0 22 -4 40 -10 40 -5 0 -10 -18 -10 -40z m220
-172 l0 -73 -82 2 c-61 1 -93 -3 -118 -15 -33 -16 -36 -21 -44 -81 -6 -46 -5
-70 5 -87 14 -28 16 -25 -38 -53 -36 -18 -43 -26 -43 -51 0 -23 -4 -30 -20
-30 -19 0 -20 7 -20 230 l0 230 180 0 180 0 0 -72z m-143 -164 c-7 -50 -6 -72
3 -90 15 -28 17 -25 -37 -53 -36 -18 -43 -26 -43 -51 0 -28 -2 -30 -40 -30
-22 0 -40 2 -40 4 0 21 20 41 61 62 52 26 60 44 36 79 -10 14 -12 36 -8 68 5
38 11 52 31 63 44 24 47 19 37 -52z m133 -4 c33 0 38 -3 43 -26 5 -30 -25 -89
-54 -105 -26 -13 -52 2 -77 44 -31 54 -11 104 36 91 8 -2 31 -4 52 -4z m-65
-157 c33 -16 37 -16 71 0 35 17 37 17 77 -5 23 -13 43 -31 45 -41 3 -16 -10
-17 -157 -17 -89 0 -161 4 -161 8 0 18 58 66 87 72 1 0 18 -8 38 -17z"/>
</g>
</svg>
