<?xml version="1.0" standalone="no"?>
<!DOCTYPE svg PUBLIC "-//W3C//DTD SVG 20010904//EN"
 "http://www.w3.org/TR/2001/REC-SVG-20010904/DTD/svg10.dtd">
<svg version="1.0" xmlns="http://www.w3.org/2000/svg"
 width="64.000000pt" height="64.000000pt" viewBox="0 0 64.000000 64.000000"
 preserveAspectRatio="xMidYMid meet">
<metadata>
Created by potrace 1.16, written by Peter Selinger 2001-2019
</metadata>
<g transform="translate(0.000000,64.000000) scale(0.100000,-0.100000)"
fill="#FFFFFF" stroke="none">
<path d="M174 605 c-45 -20 -58 -41 -58 -96 0 -27 -3 -49 -7 -49 -24 0 -14
-84 11 -100 5 -3 11 -16 15 -30 5 -22 -1 -29 -50 -58 -69 -42 -85 -71 -85
-162 l0 -70 200 0 c182 0 202 -2 232 -20 40 -24 107 -26 148 -5 79 41 80 188
2 229 -16 8 -34 21 -40 29 -10 12 -7 17 18 27 47 19 55 35 35 67 -10 15 -26
58 -36 96 -32 125 -65 142 -289 153 -40 2 -77 -2 -96 -11z m184 -49 c19 -18
23 -28 15 -38 -14 -17 -4 -78 13 -85 18 -7 18 -18 0 -35 -7 -8 -23 -33 -35
-55 -49 -98 -133 -98 -182 0 -12 22 -28 47 -35 55 -18 18 -18 28 2 36 13 5 15
15 10 45 -11 71 11 95 109 116 25 5 80 -16 103 -39z m114 -2 c27 -14 50 -67
89 -203 4 -15 -66 -49 -77 -38 -4 3 3 19 15 35 22 32 25 50 15 101 -6 29 -9
31 -51 31 -50 0 -57 -23 -10 -28 38 -5 44 -39 17 -86 -12 -20 -31 -41 -41 -47
-26 -13 -24 -29 4 -29 12 0 31 -7 41 -15 35 -27 -11 -18 -60 10 -40 24 -43 27
-31 48 6 12 15 24 19 27 25 19 31 100 7 100 -5 0 -9 7 -9 15 0 8 5 15 10 15
15 0 12 27 -5 61 l-16 30 28 -7 c15 -4 40 -13 55 -20z m-282 -294 c34 -27 103
-26 141 0 27 20 29 20 56 3 15 -9 29 -18 31 -19 2 -1 -7 -18 -19 -38 -17 -29
-20 -48 -17 -92 l5 -54 -181 2 -181 3 -3 30 c-6 61 19 107 78 147 30 21 57 37
60 37 3 1 16 -8 30 -19z m391 -59 c41 -41 41 -101 0 -142 -65 -64 -171 -20
-171 71 0 91 106 135 171 71z"/>
</g>
</svg>
