<?xml version="1.0" standalone="no"?>
<!DOCTYPE svg PUBLIC "-//W3C//DTD SVG 20010904//EN"
 "http://www.w3.org/TR/2001/REC-SVG-20010904/DTD/svg10.dtd">
<svg version="1.0" xmlns="http://www.w3.org/2000/svg"
 width="64.000000pt" height="64.000000pt" viewBox="0 0 64.000000 64.000000"
 preserveAspectRatio="xMidYMid meet">
<metadata>
Created by potrace 1.16, written by Peter Selinger 2001-2019
</metadata>
<g transform="translate(0.000000,64.000000) scale(0.100000,-0.100000)"
fill="#000000" stroke="none">
<path d="M90 460 c0 -79 0 -80 -25 -80 -23 0 -25 -3 -25 -50 0 -47 2 -50 25
-50 25 0 25 -1 25 -90 0 -53 4 -90 10 -90 6 0 10 37 10 90 0 53 4 90 10 90 6
0 10 -37 10 -90 l0 -90 30 0 30 0 0 90 c0 53 4 90 10 90 6 0 10 -37 10 -90 0
-53 4 -90 10 -90 6 0 10 37 10 90 0 53 4 90 10 90 6 0 10 -37 10 -90 0 -53 4
-90 10 -90 6 0 10 37 10 90 0 53 4 90 10 90 6 0 10 -37 10 -90 l0 -90 30 0 30
0 0 90 c0 53 4 90 10 90 6 0 10 -37 10 -90 0 -53 4 -90 10 -90 6 0 10 37 10
90 0 53 4 90 10 90 6 0 10 -37 10 -90 0 -53 4 -90 10 -90 6 0 10 37 10 90 0
53 4 90 10 90 6 0 10 -37 10 -90 0 -53 4 -90 10 -90 6 0 10 37 10 90 0 53 4
90 10 90 6 0 10 -37 10 -90 l0 -90 30 0 30 0 0 90 c0 89 0 90 25 90 23 0 25 3
25 50 0 47 -2 50 -25 50 -25 0 -25 1 -25 80 l0 80 -30 0 -30 0 0 -80 c0 -47
-4 -80 -10 -80 -6 0 -10 33 -10 80 0 47 -4 80 -10 80 -6 0 -10 -33 -10 -80 0
-47 -4 -80 -10 -80 -6 0 -10 33 -10 80 0 47 -4 80 -10 80 -6 0 -10 -33 -10
-80 0 -47 -4 -80 -10 -80 -6 0 -10 33 -10 80 0 47 -4 80 -10 80 -6 0 -10 -33
-10 -80 0 -47 -4 -80 -10 -80 -6 0 -10 33 -10 80 l0 80 -30 0 -30 0 0 -80 c0
-47 -4 -80 -10 -80 -6 0 -10 33 -10 80 0 47 -4 80 -10 80 -6 0 -10 -33 -10
-80 0 -47 -4 -80 -10 -80 -6 0 -10 33 -10 80 0 47 -4 80 -10 80 -6 0 -10 -33
-10 -80 0 -47 -4 -80 -10 -80 -6 0 -10 33 -10 80 l0 80 -30 0 -30 0 0 -80 c0
-47 -4 -80 -10 -80 -6 0 -10 33 -10 80 0 47 -4 80 -10 80 -6 0 -10 -33 -10
-80z m490 -130 l0 -30 -260 0 -260 0 0 30 0 30 260 0 260 0 0 -30z"/>
</g>
</svg>
