<?xml version="1.0" standalone="no"?>
<!DOCTYPE svg PUBLIC "-//W3C//DTD SVG 20010904//EN"
 "http://www.w3.org/TR/2001/REC-SVG-20010904/DTD/svg10.dtd">
<svg version="1.0" xmlns="http://www.w3.org/2000/svg"
 width="64.000000pt" height="64.000000pt" viewBox="0 0 64.000000 64.000000"
 preserveAspectRatio="xMidYMid meet">
<metadata>
Created by potrace 1.16, written by Peter Selinger 2001-2019
</metadata>
<g transform="translate(0.000000,64.000000) scale(0.100000,-0.100000)"
fill="#FFFFFF" stroke="none">
<path d="M130 560 c0 -28 -2 -30 -40 -30 l-40 0 0 -240 0 -240 270 0 270 0 0
240 0 240 -40 0 c-38 0 -40 2 -40 30 0 27 -3 30 -30 30 -27 0 -30 -3 -30 -30
0 -29 -1 -30 -50 -30 -49 0 -50 1 -50 30 0 27 -3 30 -30 30 -27 0 -30 -3 -30
-30 0 -29 -1 -30 -50 -30 -49 0 -50 1 -50 30 0 27 -3 30 -30 30 -27 0 -30 -3
-30 -30z m0 -80 c0 -27 3 -30 30 -30 27 0 30 3 30 30 0 29 1 30 50 30 49 0 50
-1 50 -30 0 -27 3 -30 30 -30 27 0 30 3 30 30 0 29 1 30 50 30 49 0 50 -1 50
-30 0 -27 3 -30 30 -30 27 0 30 3 30 31 0 27 3 30 28 27 l27 -3 0 -215 0 -215
-245 0 -245 0 -2 205 c-1 113 0 211 2 218 3 6 16 12 30 12 21 0 25 -5 25 -30z"/>
<path d="M130 260 l0 -100 190 0 190 0 0 100 0 100 -190 0 -190 0 0 -100z"/>
</g>
</svg>
