<?xml version="1.0" standalone="no"?>
<!DOCTYPE svg PUBLIC "-//W3C//DTD SVG 20010904//EN"
 "http://www.w3.org/TR/2001/REC-SVG-20010904/DTD/svg10.dtd">
<svg version="1.0" xmlns="http://www.w3.org/2000/svg"
 width="64.000000pt" height="64.000000pt" viewBox="0 0 64.000000 64.000000"
 preserveAspectRatio="xMidYMid meet">
<metadata>
Created by potrace 1.16, written by Peter Selinger 2001-2019
</metadata>
<g transform="translate(0.000000,64.000000) scale(0.100000,-0.100000)"
fill="#000000" stroke="none">
<path d="M432 585 c-17 -14 -34 -25 -39 -25 -15 0 -84 -76 -76 -84 4 -4 -56
-69 -134 -144 l-141 -137 -7 -79 c-3 -43 -4 -80 -2 -83 3 -2 40 -1 83 3 l79 7
143 140 c78 78 142 137 142 132 0 -5 18 9 40 30 22 21 40 43 40 48 0 5 11 22
25 39 37 44 32 67 -28 126 -59 59 -82 64 -125 27z m-37 -195 l49 -50 -124
-125 c-88 -88 -126 -121 -128 -109 -3 10 27 48 77 98 77 78 96 106 69 106 -7
0 -50 -37 -95 -82 -45 -45 -86 -79 -90 -75 -4 4 23 38 60 75 59 59 84 102 59
102 -4 0 -39 -31 -77 -70 -40 -40 -78 -70 -90 -70 -14 0 15 34 105 125 69 69
127 125 130 125 3 0 28 -23 55 -50z"/>
</g>
</svg>
