<?xml version="1.0" standalone="no"?>
<!DOCTYPE svg PUBLIC "-//W3C//DTD SVG 20010904//EN"
 "http://www.w3.org/TR/2001/REC-SVG-20010904/DTD/svg10.dtd">
<svg version="1.0" xmlns="http://www.w3.org/2000/svg"
 width="64.000000pt" height="64.000000pt" viewBox="0 0 64.000000 64.000000"
 preserveAspectRatio="xMidYMid meet">
<metadata>
Created by potrace 1.16, written by Peter Selinger 2001-2019
</metadata>
<g transform="translate(0.000000,64.000000) scale(0.100000,-0.100000)"
fill="#000000" stroke="none">
<path d="M350 605 c0 -9 25 -96 55 -194 50 -162 68 -232 45 -173 -7 15 -18 22
-37 22 -28 0 -30 4 -74 138 l-45 137 -107 3 -107 3 0 -91 0 -90 -30 0 -30 0 0
-130 c0 -123 1 -130 20 -130 11 0 20 -6 20 -13 0 -43 92 -64 123 -29 10 10 17
24 17 30 0 8 18 12 50 12 35 0 50 -4 50 -13 0 -43 92 -64 123 -29 10 10 17 23
17 29 0 6 10 13 21 16 17 5 20 11 17 32 -4 19 -2 23 5 16 6 -6 39 -11 74 -11
l63 0 0 30 c0 28 -2 30 -38 30 l-38 0 -65 208 -64 207 -33 3 c-24 3 -32 -1
-32 -13z m-90 -95 c11 -7 5 -10 -22 -10 -21 0 -38 -4 -38 -10 0 -5 18 -10 39
-10 l39 0 33 -97 c17 -54 34 -104 37 -110 3 -9 -8 -13 -37 -13 -44 0 -53 7
-79 60 -16 33 -20 35 -74 38 l-58 3 0 73 c0 40 3 76 7 79 10 11 136 8 153 -3z
m-70 -182 c6 -7 19 -29 28 -48 l17 -35 87 -3 c95 -3 98 -5 112 -67 7 -28 7
-29 -12 -12 -36 33 -122 12 -122 -30 0 -9 -15 -13 -50 -13 -32 0 -50 4 -50 12
0 6 -7 20 -17 30 -32 35 -123 14 -123 -29 0 -8 -4 -11 -10 -8 -5 3 -10 22 -10
41 l0 34 185 0 c117 0 185 4 185 10 0 6 -68 10 -185 10 l-185 0 0 53 c0 30 3
57 7 60 12 12 132 8 143 -5z"/>
</g>
</svg>
