<?xml version="1.0" standalone="no"?>
<!DOCTYPE svg PUBLIC "-//W3C//DTD SVG 20010904//EN"
 "http://www.w3.org/TR/2001/REC-SVG-20010904/DTD/svg10.dtd">
<svg version="1.0" xmlns="http://www.w3.org/2000/svg"
 width="64.000000pt" height="64.000000pt" viewBox="0 0 64.000000 64.000000"
 preserveAspectRatio="xMidYMid meet">
<metadata>
Created by potrace 1.16, written by Peter Selinger 2001-2019
</metadata>
<g transform="translate(0.000000,64.000000) scale(0.100000,-0.100000)"
fill="#000000" stroke="none">
<path d="M421 631 c-8 -5 -11 -16 -7 -26 9 -24 -10 -43 -38 -38 -34 7 -42 -24
-14 -54 l23 -24 -24 -18 c-18 -14 -22 -23 -16 -41 5 -15 2 -25 -6 -31 -28 -18
-50 -9 -65 26 -12 29 -19 35 -45 35 -24 0 -32 -6 -41 -30 -13 -40 -37 -52 -63
-34 -25 18 -49 18 -65 -1 -11 -13 -11 -23 0 -55 15 -45 5 -67 -33 -72 -18 -2
-22 -10 -22 -38 0 -28 4 -36 22 -38 38 -6 48 -27 33 -73 -12 -35 -11 -42 3
-56 14 -14 21 -15 56 -3 46 15 67 5 73 -33 2 -17 11 -23 36 -25 29 -3 34 0 43
28 14 39 38 53 64 34 25 -18 49 -18 65 1 11 13 11 23 0 55 -15 45 -5 67 33 72
18 2 22 10 22 38 0 28 -4 36 -22 38 -31 5 -46 27 -39 58 6 21 11 25 29 20 14
-3 29 2 45 17 l23 22 18 -24 c24 -32 66 -21 57 14 -7 27 8 41 40 37 32 -5 39
27 12 55 l-23 24 24 18 c32 24 21 66 -14 57 -27 -7 -41 8 -37 40 5 32 -27 39
-56 12 l-24 -23 -15 23 c-16 24 -30 27 -52 13z m129 -82 c53 -54 15 -144 -60
-144 -47 0 -85 38 -85 85 0 47 38 85 85 85 24 0 43 -8 60 -26z m-306 -139 c4
-22 15 -35 40 -47 32 -15 37 -15 59 0 32 20 40 12 20 -20 -15 -22 -15 -27 0
-58 11 -23 25 -35 46 -40 40 -8 40 -22 0 -30 -21 -5 -35 -17 -46 -40 -15 -31
-15 -36 0 -58 20 -32 12 -40 -20 -20 -22 15 -27 15 -59 0 -25 -12 -36 -25 -40
-47 -4 -16 -10 -30 -14 -30 -4 0 -10 14 -14 30 -4 22 -15 35 -40 47 -32 15
-37 15 -59 0 -32 -20 -40 -12 -20 20 15 22 15 27 0 58 -11 23 -25 35 -46 40
-17 4 -31 10 -31 15 0 5 14 11 31 15 21 5 35 17 46 40 15 31 15 36 0 58 -20
32 -12 40 20 20 22 -15 27 -15 59 0 25 12 36 25 40 47 4 16 10 30 14 30 4 0
10 -14 14 -30z"/>
<path d="M177 282 c-23 -25 -22 -85 1 -105 25 -23 85 -22 105 1 23 25 22 85
-1 105 -25 23 -85 22 -105 -1z"/>
</g>
</svg>
