<?xml version="1.0" standalone="no"?>
<!DOCTYPE svg PUBLIC "-//W3C//DTD SVG 20010904//EN"
 "http://www.w3.org/TR/2001/REC-SVG-20010904/DTD/svg10.dtd">
<svg version="1.0" xmlns="http://www.w3.org/2000/svg"
 width="64.000000pt" height="64.000000pt" viewBox="0 0 64.000000 64.000000"
 preserveAspectRatio="xMidYMid meet">
<metadata>
Created by potrace 1.16, written by Peter Selinger 2001-2019
</metadata>
<g transform="translate(0.000000,64.000000) scale(0.100000,-0.100000)"
fill="#000000" stroke="none">
<path d="M234 585 c-45 -20 -58 -41 -58 -96 0 -27 -3 -49 -7 -49 -23 0 -15
-82 9 -100 4 -3 12 -14 19 -26 10 -19 6 -24 -68 -60 -44 -21 -86 -48 -94 -61
-10 -15 -15 -48 -15 -98 l0 -75 150 0 c93 0 150 -4 150 -10 0 -6 60 -10 160
-10 l160 0 0 135 0 135 -29 0 c-18 0 -35 8 -43 19 -11 15 -28 21 -72 23 l-58
3 20 26 c30 37 37 73 18 92 -18 18 -21 37 -6 37 31 0 -8 83 -53 110 -38 24
-135 26 -183 5z m185 -49 c19 -20 22 -29 14 -37 -15 -15 -5 -70 15 -86 13 -11
12 -17 -10 -50 -14 -21 -32 -50 -42 -65 -12 -20 -25 -28 -45 -28 -16 0 -31 -6
-34 -12 -8 -23 -60 15 -86 62 -14 25 -31 51 -38 58 -17 18 -16 29 3 36 13 5
15 15 10 45 -10 63 4 86 66 103 64 18 111 10 147 -26z m199 -323 c2 -18 -1
-40 -7 -51 -11 -20 -91 -56 -91 -41 0 5 -18 9 -40 9 -22 0 -40 -4 -40 -9 0
-14 -72 17 -87 37 -14 17 -18 74 -6 86 4 3 66 5 137 4 l131 -3 3 -32z m-457
-36 c-16 -16 -14 -38 6 -59 9 -11 11 -18 5 -18 -7 0 -12 -9 -12 -20 0 -24 17
-27 22 -4 2 13 8 10 28 -11 l24 -26 -94 3 -95 3 -3 30 c-2 17 3 48 10 70 11
32 23 45 63 67 l50 27 3 -26 c2 -14 -1 -30 -7 -36z m282 -113 c10 -18 64 -18
74 0 4 8 30 24 56 35 l48 21 -3 -48 -3 -47 -135 0 -135 0 -3 47 -3 48 48 -21
c26 -11 52 -27 56 -35z"/>
</g>
</svg>
