<?xml version="1.0" standalone="no"?>
<!DOCTYPE svg PUBLIC "-//W3C//DTD SVG 20010904//EN"
 "http://www.w3.org/TR/2001/REC-SVG-20010904/DTD/svg10.dtd">
<svg version="1.0" xmlns="http://www.w3.org/2000/svg"
 width="64.000000pt" height="64.000000pt" viewBox="0 0 64.000000 64.000000"
 preserveAspectRatio="xMidYMid meet">
<metadata>
Created by potrace 1.16, written by Peter Selinger 2001-2019
</metadata>
<g transform="translate(0.000000,64.000000) scale(0.100000,-0.100000)"
fill="#FFF" stroke="none">
<path d="M360 590 l0 -50 -126 0 -127 0 -43 -44 -44 -43 0 -137 c0 -90 -4
-136 -11 -136 -6 0 -9 -12 -7 -27 l3 -28 107 -3 c95 -2 109 -5 118 -22 6 -11
20 -20 30 -20 17 0 20 -7 20 -41 0 -24 4 -38 10 -34 5 3 10 22 10 41 0 31 2
34 30 34 28 0 30 -3 30 -34 0 -19 5 -38 10 -41 6 -4 10 10 10 34 0 34 3 41 20
41 11 0 25 9 32 20 11 18 24 20 110 20 97 0 98 0 98 24 0 14 -4 28 -10 31 -6
4 -10 62 -10 142 l0 136 -44 43 c-41 42 -47 44 -100 44 -42 0 -56 4 -56 14 0
9 12 16 28 18 22 2 28 8 30 36 l3 32 -60 0 -61 0 0 -50z m-1 -156 c-2 -66 0
-87 12 -95 7 -5 16 -9 19 -9 3 0 12 4 19 9 12 8 14 29 12 95 l-2 86 51 0 c47
0 56 -4 91 -39 29 -28 39 -47 39 -70 0 -28 -3 -31 -30 -31 -16 0 -30 -4 -30
-10 0 -5 14 -10 30 -10 l30 0 0 -90 0 -90 -139 0 -139 0 -4 129 c-3 122 -5
130 -31 165 -16 20 -33 36 -39 36 -5 0 4 -16 21 -35 17 -20 31 -40 31 -45 0
-6 -42 -10 -98 -10 -63 0 -102 -4 -110 -12 -8 -8 -12 -49 -12 -120 0 -101 -1
-108 -20 -108 -19 0 -20 7 -20 131 l0 131 38 38 38 39 123 0 122 0 -2 -85z
m-59 -78 c0 -36 -5 -47 -25 -60 -25 -16 -27 -16 -100 35 -41 29 -75 56 -75 61
0 4 45 8 100 8 l100 0 0 -44z m-99 -58 c43 -32 56 -34 81 -11 17 15 18 14 18
-45 l0 -62 -100 0 -100 0 0 96 0 95 33 -22 c17 -13 48 -35 68 -51z"/>
</g>
</svg>
