<?xml version="1.0" encoding="iso-8859-1"?>
<!-- Generator: Adobe Illustrator 19.0.0, SVG Export Plug-In . SVG Version: 6.00 Build 0)  -->
<svg version="1.1" id="Capa_1" xmlns="http://www.w3.org/2000/svg" xmlns:xlink="http://www.w3.org/1999/xlink" x="0px" y="0px"
	 viewBox="0 0 511.999 511.999" style="enable-background:new 0 0 511.999 511.999;" xml:space="preserve">
<g transform="translate(0.000000,64.000000) scale(0.100000,-0.100000)"
fill="#FFF" stroke="none">
<g>
	<g>
		<path d="M372.569,266.929c-1.859-1.86-4.439-2.93-7.069-2.93s-5.21,1.07-7.07,2.93c-1.86,1.86-2.93,4.44-2.93,7.07
			s1.069,5.21,2.93,7.07c1.861,1.86,4.44,2.93,7.07,2.93s5.21-1.07,7.069-2.93c1.86-1.86,2.931-4.44,2.931-7.07
			S374.43,268.789,372.569,266.929z"/>
	</g>
</g>
<g>
	<g>
		<path d="M197.5,245.999h-105c-5.522,0-10,4.477-10,10s4.478,10,10,10h105c5.522,0,10-4.477,10-10S203.023,245.999,197.5,245.999z"
			/>
	</g>
</g>
<g>
	<g>
		<path d="M355,53.999h-2.347c-5.522,0-10,4.477-10,10s4.478,10,10,10H355c60.654,0,110,49.346,110,110v32H333
			c-5.522,0-10,4.477-10,10s4.478,10,10,10h132v28h-60.667c-5.522,0-10,4.477-10,10s4.478,10,10,10H465v28H263v-140
			c0-40.783-20.799-76.797-52.344-98H283v99.5c0,5.523,4.478,10,10,10c5.522,0,10-4.477,10-10v-103.5l45.325-24.176
			c3.259-1.738,5.294-5.13,5.294-8.823s-2.035-7.085-5.294-8.823l-50.619-27c-3.098-1.653-6.839-1.56-9.851,0.248
			C284.843,3.231,283,6.487,283,9.999v44c0,0-137.599,0-138,0c-65.065,0-118,52.935-118,118v150c0,5.523,4.478,10,10,10h180v160H64
			c-5.522,0-10,4.477-10,10s4.478,10,10,10h384c5.522,0,10-4.477,10-10s-4.478-10-10-10H333v-160h142c5.522,0,10-4.477,10-10v-138
			C485,112.317,426.683,53.999,355,53.999z M303,26.667l19.371,10.332L303,47.332V26.667z M47,311.999v-140
			c0-54.038,43.963-98,98-98s98,43.962,98,98v140H47z M273,491.999h-36v-160h16h20V491.999z M313,491.999h-20v-160h3h17V491.999z"/>
	</g>
</g>
<g>
	<g>
		<path d="M145,93.999c-5.522,0-10,4.477-10,10s4.478,10,10,10c31.981,0,58,26.019,58,58c0,5.523,4.478,10,10,10
			c5.522,0,10-4.477,10-10C223,128.99,188.01,93.999,145,93.999z"/>
	</g>
</g>
<g>
	<g>
		<path d="M220.069,198.929c-1.859-1.86-4.439-2.93-7.069-2.93s-5.21,1.07-7.07,2.93s-2.93,4.44-2.93,7.07s1.069,5.21,2.93,7.07
			c1.861,1.86,4.44,2.93,7.07,2.93s5.21-1.07,7.069-2.93c1.86-1.86,2.931-4.44,2.931-7.07S221.93,200.789,220.069,198.929z"/>
	</g>
</g>
<g>
</g>
<g>
</g>
<g>
</g>
<g>
</g>
<g>
</g>
<g>
</g>
<g>
</g>
<g>
</g>
<g>
</g>
<g>
</g>
<g>
</g>
<g>
</g>
<g>
</g>
<g>
</g>
<g>
</g>
</svg>
