<?xml version="1.0" standalone="no"?>
<!DOCTYPE svg PUBLIC "-//W3C//DTD SVG 20010904//EN"
 "http://www.w3.org/TR/2001/REC-SVG-20010904/DTD/svg10.dtd">
<svg version="1.0" xmlns="http://www.w3.org/2000/svg"
 width="64.000000pt" height="64.000000pt" viewBox="0 0 64.000000 64.000000"
 preserveAspectRatio="xMidYMid meet">
<metadata>
Created by potrace 1.16, written by Peter Selinger 2001-2019
</metadata>
<g transform="translate(0.000000,64.000000) scale(0.100000,-0.100000)"
fill="#FFF" stroke="none">
<path d="M367 634 c-4 -4 -7 -26 -7 -50 l0 -42 -122 -4 c-108 -3 -127 -6 -154
-25 -52 -37 -64 -76 -64 -207 0 -71 -5 -124 -12 -135 -6 -10 -8 -26 -5 -35 5
-13 24 -16 114 -16 97 0 109 -2 121 -20 7 -11 19 -20 27 -20 11 0 15 -11 15
-40 0 -22 5 -40 10 -40 6 0 10 18 10 40 0 38 2 40 30 40 28 0 30 -2 30 -40 0
-22 5 -40 10 -40 6 0 10 18 10 40 0 29 4 40 15 40 8 0 20 9 27 20 11 18 24 20
111 20 81 0 99 3 104 16 3 9 1 25 -5 35 -7 11 -12 64 -12 135 0 86 -4 125 -16
150 -23 49 -67 77 -131 82 -60 5 -73 26 -22 37 25 6 30 11 27 33 -3 25 -7 27
-53 30 -28 2 -54 0 -58 -4z m-138 -132 c58 -31 71 -69 71 -204 l0 -118 -130 0
-130 0 0 118 c0 136 14 176 70 204 45 23 77 23 119 0z m130 -68 c-3 -74 -1
-88 14 -98 12 -8 22 -8 35 0 14 10 16 24 13 98 l-3 86 39 0 c51 0 102 -29 125
-71 28 -53 24 -69 -17 -69 -19 0 -35 -4 -35 -10 0 -5 16 -10 35 -10 l35 0 0
-90 0 -90 -140 0 -140 0 0 121 c0 129 -12 175 -54 204 -19 14 -16 15 38 15
l58 0 -3 -86z"/>
</g>
</svg>
