<?xml version="1.0" standalone="no"?>
<!DOCTYPE svg PUBLIC "-//W3C//DTD SVG 20010904//EN"
 "http://www.w3.org/TR/2001/REC-SVG-20010904/DTD/svg10.dtd">
<svg version="1.0" xmlns="http://www.w3.org/2000/svg"
 width="64.000000pt" height="64.000000pt" viewBox="0 0 64.000000 64.000000"
 preserveAspectRatio="xMidYMid meet">
<metadata>
Created by potrace 1.16, written by Peter Selinger 2001-2019
</metadata>
<g transform="translate(0.000000,64.000000) scale(0.100000,-0.100000)"
fill="#000000" stroke="none">
<path d="M200 589 c-60 -27 -117 -83 -146 -144 -19 -39 -24 -67 -24 -125 0
-88 22 -145 78 -204 57 -59 122 -86 212 -86 90 0 155 27 212 86 56 59 78 116
78 204 0 58 -5 86 -24 125 -29 61 -86 117 -146 144 -62 28 -178 28 -240 0z
m225 -28 c100 -45 155 -131 155 -240 -1 -153 -108 -261 -260 -261 -152 0 -260
108 -260 260 0 107 49 188 142 234 65 32 161 35 223 7z"/>
<path d="M213 529 c-48 -24 -89 -68 -110 -118 -17 -40 -19 -135 -3 -175 16
-42 49 -86 66 -86 21 0 17 17 -13 57 -25 32 -28 45 -28 112 0 63 4 81 23 109
44 60 88 86 158 90 46 3 64 8 64 18 0 23 -107 18 -157 -7z"/>
</g>
</svg>
