<?xml version="1.0" standalone="no"?>
<!DOCTYPE svg PUBLIC "-//W3C//DTD SVG 20010904//EN"
 "http://www.w3.org/TR/2001/REC-SVG-20010904/DTD/svg10.dtd">
<svg version="1.0" xmlns="http://www.w3.org/2000/svg"
 width="64.000000pt" height="64.000000pt" viewBox="0 0 64.000000 64.000000"
 preserveAspectRatio="xMidYMid meet">

<g transform="translate(0.000000,64.000000) scale(0.100000,-0.100000)"
fill="#FFF" stroke="none">
<path d="M169 552 c-44 -44 -49 -54 -49 -93 0 -41 -3 -46 -48 -74 l-47 -30 0
-155 0 -155 295 0 295 0 0 155 0 155 -47 30 -47 30 -3 90 -3 90 -149 3 -148 3
-49 -49z m331 -102 c0 -80 4 -130 10 -130 6 0 10 16 10 36 l0 35 40 -22 c22
-13 40 -27 40 -33 0 -6 -63 -39 -140 -73 l-139 -62 -140 62 c-77 34 -141 67
-141 73 0 6 18 20 40 33 l40 22 0 -35 c0 -20 5 -36 10 -36 6 0 10 33 10 79 l0
80 48 3 47 3 3 48 3 47 130 0 129 0 0 -130z m-280 85 c0 -34 -1 -35 -37 -35
l-37 0 34 35 c19 19 35 35 37 35 2 0 3 -16 3 -35z m-35 -295 l135 -61 128 57
c70 31 133 58 140 61 9 4 12 -23 12 -116 l0 -121 -280 0 -280 0 0 120 c0 66 2
120 5 120 3 0 66 -27 140 -60z"/>
<path d="M310 440 l0 -40 -40 0 c-22 0 -40 -4 -40 -10 0 -5 18 -10 40 -10 l40
0 0 -40 c0 -22 5 -40 10 -40 6 0 10 18 10 40 l0 40 40 0 c22 0 40 5 40 10 0 6
-18 10 -40 10 l-40 0 0 40 c0 22 -4 40 -10 40 -5 0 -10 -18 -10 -40z"/>
<path d="M60 120 c0 -11 5 -20 10 -20 6 0 10 9 10 20 0 11 -4 20 -10 20 -5 0
-10 -9 -10 -20z"/>
<path d="M110 120 c0 -11 5 -20 10 -20 6 0 10 9 10 20 0 11 -4 20 -10 20 -5 0
-10 -9 -10 -20z"/>
<path d="M160 120 c0 -11 5 -20 10 -20 6 0 10 9 10 20 0 11 -4 20 -10 20 -5 0
-10 -9 -10 -20z"/>
<path d="M210 120 c0 -11 5 -20 10 -20 6 0 10 9 10 20 0 11 -4 20 -10 20 -5 0
-10 -9 -10 -20z"/>
<path d="M260 120 c0 -11 5 -20 10 -20 6 0 10 9 10 20 0 11 -4 20 -10 20 -5 0
-10 -9 -10 -20z"/>
<path d="M310 120 c0 -11 5 -20 10 -20 6 0 10 9 10 20 0 11 -4 20 -10 20 -5 0
-10 -9 -10 -20z"/>
<path d="M360 120 c0 -11 5 -20 10 -20 6 0 10 9 10 20 0 11 -4 20 -10 20 -5 0
-10 -9 -10 -20z"/>
<path d="M410 120 c0 -11 5 -20 10 -20 6 0 10 9 10 20 0 11 -4 20 -10 20 -5 0
-10 -9 -10 -20z"/>
<path d="M460 120 c0 -11 5 -20 10 -20 6 0 10 9 10 20 0 11 -4 20 -10 20 -5 0
-10 -9 -10 -20z"/>
<path d="M510 120 c0 -11 5 -20 10 -20 6 0 10 9 10 20 0 11 -4 20 -10 20 -5 0
-10 -9 -10 -20z"/>
<path d="M560 120 c0 -11 5 -20 10 -20 6 0 10 9 10 20 0 11 -4 20 -10 20 -5 0
-10 -9 -10 -20z"/>
</g>
</svg>
