<?xml version="1.0" standalone="no"?>
<!DOCTYPE svg PUBLIC "-//W3C//DTD SVG 20010904//EN"
 "http://www.w3.org/TR/2001/REC-SVG-20010904/DTD/svg10.dtd">
<svg version="1.0" xmlns="http://www.w3.org/2000/svg"
 width="64.000000pt" height="64.000000pt" viewBox="0 0 64.000000 64.000000"
 preserveAspectRatio="xMidYMid meet">
<metadata>
Created by potrace 1.16, written by Peter Selinger 2001-2019
</metadata>
<g transform="translate(0.000000,64.000000) scale(0.100000,-0.100000)"
fill="#000000" stroke="none">
<path d="M0 550 c0 -27 5 -50 10 -50 6 0 10 -66 10 -179 0 -154 2 -180 16
-185 9 -3 49 -6 90 -6 l74 0 0 -35 0 -35 220 0 220 0 0 140 0 140 -40 0 -40 0
0 80 c0 47 4 80 10 80 6 0 10 23 10 50 l0 50 -290 0 -290 0 0 -50z m558 -2
c-2 -17 -11 -24 -30 -26 -32 -4 -39 -32 -8 -32 18 0 20 -7 20 -75 l0 -75 -170
0 -170 0 0 -90 0 -91 -77 3 -78 3 -3 163 -2 162 180 0 c152 0 180 2 180 15 0
12 -30 15 -187 17 -186 3 -188 3 -191 26 l-3 22 271 0 271 0 -3 -22z m32 -232
c0 -2 -38 -31 -85 -65 l-85 -61 -85 61 c-47 34 -85 63 -85 65 0 2 77 4 170 4
94 0 170 -2 170 -4z m-192 -148 c27 -14 41 -8 145 67 l77 56 0 -80 c0 -45 -2
-81 -5 -81 -2 0 -26 13 -52 30 -50 32 -73 38 -73 18 0 -7 27 -29 60 -48 33
-19 60 -38 60 -42 0 -5 -85 -8 -190 -8 -104 0 -190 3 -190 8 0 4 27 23 60 42
33 19 60 41 60 48 0 20 -23 14 -73 -18 -26 -17 -50 -30 -52 -30 -3 0 -5 36 -5
81 l0 80 78 -56 c42 -30 87 -61 100 -67z"/>
<path d="M184 446 c-3 -8 -4 -25 -2 -38 3 -22 6 -23 108 -23 l105 0 0 35 0 35
-103 3 c-82 2 -103 0 -108 -12z"/>
</g>
</svg>
