<?xml version="1.0" standalone="no"?>
<!DOCTYPE svg PUBLIC "-//W3C//DTD SVG 20010904//EN"
 "http://www.w3.org/TR/2001/REC-SVG-20010904/DTD/svg10.dtd">
<svg version="1.0" xmlns="http://www.w3.org/2000/svg"
 width="256pt" height="128pt" viewBox="400 150 600.000000 300.000000"
 preserveAspectRatio="xMidYMid meet">
<metadata>
Created by potrace 1.16, written by Peter Selinger 2001-2019
</metadata>
<g transform="translate(0.000000,672.000000) scale(0.100000,-0.100000)"
fill="#FFFFFF" stroke="none">
<path d="M7539 4947 c-62 -85 -113 -172 -139 -237 -12 -30 -25 -59 -30 -65
-12 -14 -50 -178 -56 -239 -3 -28 -10 -60 -15 -71 -6 -11 -9 -52 -7 -90 l3
-70 50 0 50 0 7 104 c8 115 32 250 54 296 7 17 21 50 29 75 18 51 99 192 120
210 8 7 15 18 15 24 0 6 11 23 25 38 14 15 25 31 25 35 0 7 -47 35 -80 49 -3
1 -26 -26 -51 -59z"/>
<path d="M6290 4621 c-68 -14 -93 -33 -112 -86 -16 -46 -18 -95 -18 -557 0
-279 4 -509 9 -512 4 -3 11 -19 14 -35 20 -98 227 -122 297 -34 19 25 20 40
20 580 0 605 1 597 -58 627 -35 18 -108 26 -152 17z m101 -80 l29 -29 0 -531
c0 -518 -1 -532 -20 -551 -35 -35 -120 -24 -139 16 -8 18 -11 181 -11 542 0
560 -1 550 54 572 37 15 57 11 87 -19z"/>
<path d="M4350 3986 l0 -637 38 3 37 3 3 301 2 302 78 4 c87 4 130 21 149 58
9 18 13 93 13 273 l0 247 -34 37 -34 37 -126 4 -126 4 0 -636z m214 543 l26
-31 0 -214 c0 -215 0 -215 -25 -239 -20 -21 -34 -25 -80 -25 l-55 0 0 270 0
270 54 0 c48 0 57 -3 80 -31z"/>
<path d="M4915 4538 c-3 -46 -10 -94 -15 -108 -5 -14 -20 -144 -35 -290 -14
-146 -30 -281 -35 -300 -6 -19 -21 -137 -33 -262 l-23 -228 31 0 c44 0 52 21
65 190 7 80 17 153 22 163 8 15 21 17 91 15 l82 -3 18 -170 c9 -93 19 -176 22
-182 2 -8 21 -13 43 -13 l38 0 -18 173 c-9 94 -22 206 -27 247 -6 41 -20 149
-31 240 -11 91 -27 219 -35 285 -9 66 -21 165 -28 220 l-12 100 -56 3 -57 3
-7 -83z m94 -340 c12 -134 26 -252 31 -263 5 -11 11 -50 14 -87 l5 -68 -81 0
-80 0 5 53 c4 28 8 67 11 84 12 71 46 417 46 462 0 45 5 61 20 61 3 0 16 -109
29 -242z"/>
<path d="M5240 4590 l0 -30 70 0 70 0 2 -602 3 -603 37 -3 38 -3 2 603 3 603
63 3 c61 3 62 3 62 32 l0 30 -175 0 -175 0 0 -30z"/>
<path d="M5676 4605 c-12 -33 4 -45 65 -45 l59 0 2 -602 3 -603 35 0 35 0 5
600 5 600 68 3 c67 3 67 3 67 32 l0 30 -169 0 c-141 0 -170 -2 -175 -15z"/>
<path d="M6722 3988 l3 -633 43 -3 44 -3 -4 535 c-1 295 -1 536 2 536 3 0 12
-57 19 -126 7 -69 22 -176 32 -237 11 -62 35 -211 55 -332 56 -353 57 -360 68
-367 6 -4 32 -8 59 -8 l47 0 0 635 0 635 -40 0 -40 0 3 -497 c3 -274 8 -517
12 -540 4 -26 3 -43 -3 -43 -5 0 -17 62 -26 138 -10 75 -21 146 -26 157 -5 11
-19 97 -31 190 -12 94 -28 206 -36 250 -13 76 -52 321 -53 338 0 4 -29 7 -65
7 l-65 0 2 -632z"/>
<path d="M7650 3990 l0 -630 35 0 35 0 0 305 c0 168 3 305 8 305 4 0 13 -26
21 -57 7 -32 24 -89 37 -128 13 -38 33 -101 43 -140 11 -38 27 -95 36 -125 9
-30 22 -77 29 -105 11 -49 12 -50 54 -53 47 -4 49 1 26 56 -8 20 -27 80 -40
132 -14 52 -29 100 -33 105 -4 6 -14 33 -21 60 -7 28 -22 82 -33 120 -11 39
-21 72 -22 75 -1 3 -7 19 -15 35 -21 51 -15 105 28 232 23 68 42 130 42 139 0
9 6 30 14 47 8 18 26 73 40 122 15 50 31 98 36 107 15 26 13 28 -29 28 l-38 0
-18 -62 c-9 -35 -20 -67 -24 -73 -4 -5 -18 -50 -31 -100 -12 -49 -30 -108 -40
-130 -10 -22 -26 -73 -36 -112 -10 -40 -22 -73 -26 -73 -4 0 -8 124 -8 275 l0
275 -35 0 -35 0 0 -630z"/>
<path d="M8135 4598 c-3 -13 -4 -295 -3 -628 l3 -605 43 -3 42 -3 0 630 0 631
-40 0 c-33 0 -41 -4 -45 -22z"/>
<path d="M8450 3990 l0 -630 136 0 c135 0 135 0 132 23 -3 21 -9 22 -88 25
-46 2 -87 5 -90 8 -6 6 -7 407 -2 497 l4 57 79 0 c78 0 79 0 79 25 0 24 -2 25
-75 25 -69 0 -76 2 -84 23 -10 26 -13 318 -5 435 l6 82 84 0 84 0 0 30 0 30
-130 0 -130 0 0 -630z"/>
<path d="M8916 4597 c-7 -31 -7 -1202 0 -1222 4 -9 19 -15 40 -15 l34 0 0 305
0 305 85 0 85 0 0 -305 0 -305 39 0 c26 0 41 5 45 16 3 9 6 285 6 614 0 329
-3 605 -6 614 -4 11 -19 16 -45 16 l-39 0 -2 -297 -3 -298 -80 0 -80 0 -3 298
-2 297 -34 0 c-27 0 -35 -5 -40 -23z"/>
<path d="M9472 3993 l3 -628 138 -3 c130 -2 137 -2 137 17 0 26 -18 30 -115
29 l-80 -1 -3 607 -2 606 -40 0 -40 0 2 -627z"/>
<path d="M7295 4025 c-31 -30 -32 -73 -4 -109 12 -15 24 -25 26 -22 3 3 14 1
24 -4 27 -15 98 16 105 46 11 43 -5 94 -32 104 -46 18 -93 12 -119 -15z"/>
<path d="M7330 3733 c0 -67 -18 -214 -30 -238 -5 -11 -17 -49 -26 -85 -27
-110 -110 -271 -196 -382 -16 -21 -27 -42 -23 -48 9 -15 73 -42 84 -36 17 11
131 186 165 255 39 80 90 234 105 317 6 32 13 103 17 157 6 93 6 97 -13 97
-11 0 -35 3 -52 6 l-31 7 0 -50z"/>
<path d="M4369 2945 c-59 -39 -72 -68 -66 -145 4 -52 11 -73 29 -92 46 -48 84
-68 131 -68 38 0 49 5 71 31 21 25 26 41 26 85 l0 54 -56 0 c-40 0 -55 -4 -52
-12 3 -7 19 -14 36 -16 29 -3 32 -6 32 -37 0 -36 -17 -49 -60 -46 -70 6 -110
47 -110 115 0 26 9 44 35 72 31 33 38 36 72 31 21 -4 43 -13 49 -22 6 -8 21
-15 33 -15 37 0 23 41 -24 67 -51 29 -100 28 -146 -2z"/>
<path d="M4900 2815 c0 -138 1 -145 20 -145 17 0 20 7 20 45 l0 45 54 0 c58 0
66 -7 66 -61 0 -24 4 -29 26 -29 24 0 25 1 18 48 -3 26 -11 55 -16 65 -7 13
-5 24 6 36 25 28 20 86 -9 116 -23 23 -34 25 -105 25 l-80 0 0 -145z"/>
<path d="M5525 2950 c-3 -5 -13 -10 -21 -10 -23 0 -63 -41 -75 -78 -15 -46 -5
-115 23 -152 44 -61 164 -66 212 -10 35 42 45 126 20 177 -28 56 -138 107
-159 73z m73 -41 c48 -17 66 -96 38 -164 -17 -39 -46 -51 -101 -41 -46 9 -65
39 -65 101 0 89 51 131 128 104z"/>
<path d="M9083 2918 c-48 -49 -61 -99 -44 -165 16 -59 60 -93 119 -93 61 0
112 30 112 65 0 31 -24 33 -60 5 -14 -11 -40 -20 -58 -20 -26 0 -36 6 -52 33
-26 42 -25 86 3 128 26 39 75 51 97 25 18 -23 73 -21 68 1 -5 27 -67 63 -107
63 -30 0 -45 -8 -78 -42z"/>
<path d="M7770 2925 c0 -23 4 -25 45 -25 l45 0 0 -95 0 -95 -45 0 c-41 0 -45
-2 -45 -25 l0 -25 125 0 125 0 0 25 c0 23 -4 25 -45 25 l-45 0 0 95 0 95 45 0
c41 0 45 2 45 25 l0 25 -125 0 -125 0 0 -25z"/>
<path d="M8370 2810 l0 -140 30 0 30 0 0 93 0 92 28 -45 c87 -142 85 -140 119
-140 l33 0 0 135 c0 128 -1 135 -20 135 -19 0 -20 -7 -20 -96 0 -52 -4 -93 -9
-90 -4 3 -34 48 -65 101 -54 91 -58 95 -91 95 l-35 0 0 -140z"/>
<path d="M6030 2831 c0 -102 2 -112 24 -138 22 -25 30 -28 91 -28 61 0 69 3
91 28 22 26 24 36 24 138 0 100 -2 110 -17 107 -15 -3 -19 -17 -23 -84 -6
-100 -25 -134 -75 -134 -50 0 -69 34 -75 134 -4 67 -8 81 -22 84 -16 3 -18 -7
-18 -107z"/>
<path d="M6600 2805 l0 -135 25 0 c23 0 25 4 25 45 l0 45 63 0 c53 0 67 4 85
23 31 33 30 96 -3 131 -22 24 -30 26 -110 26 l-85 0 0 -135z"/>
</g>
</svg>
