<?xml version="1.0" standalone="no"?>
<!DOCTYPE svg PUBLIC "-//W3C//DTD SVG 20010904//EN"
 "http://www.w3.org/TR/2001/REC-SVG-20010904/DTD/svg10.dtd">
<svg version="1.0" xmlns="http://www.w3.org/2000/svg"
 width="1416.000000pt" height="672.000000pt" viewBox="0 0 1416.000000 672.000000"
 preserveAspectRatio="xMidYMid meet">
<metadata>
Created by potrace 1.16, written by Peter Selinger 2001-2019
</metadata>
<g transform="translate(0.000000,672.000000) scale(0.100000,-0.100000)"
fill="#000000" stroke="none">
<path d="M7539 4947 c-62 -85 -113 -172 -139 -237 -12 -30 -25 -59 -30 -65
-12 -14 -50 -178 -56 -239 -3 -28 -10 -60 -15 -71 -6 -11 -9 -52 -7 -90 l3
-70 50 0 50 0 7 104 c8 115 32 250 54 296 7 17 21 50 29 75 18 51 99 192 120
210 8 7 15 18 15 24 0 6 11 23 25 38 14 15 25 31 25 35 0 7 -47 35 -80 49 -3
1 -26 -26 -51 -59z"/>
<path d="M6290 4621 c-68 -14 -93 -33 -112 -86 -16 -46 -18 -95 -18 -557 0
-279 4 -509 9 -512 4 -3 11 -19 14 -35 20 -98 227 -122 297 -34 19 25 20 40
20 580 0 605 1 597 -58 627 -35 18 -108 26 -152 17z m101 -80 l29 -29 0 -531
c0 -518 -1 -532 -20 -551 -35 -35 -120 -24 -139 16 -8 18 -11 181 -11 542 0
560 -1 550 54 572 37 15 57 11 87 -19z"/>
<path d="M4350 3986 l0 -637 38 3 37 3 3 301 2 302 78 4 c87 4 130 21 149 58
9 18 13 93 13 273 l0 247 -34 37 -34 37 -126 4 -126 4 0 -636z m214 543 l26
-31 0 -214 c0 -215 0 -215 -25 -239 -20 -21 -34 -25 -80 -25 l-55 0 0 270 0
270 54 0 c48 0 57 -3 80 -31z"/>
<path d="M4915 4538 c-3 -46 -11 -96 -16 -113 -5 -16 -23 -156 -39 -310 -17
-154 -32 -291 -35 -305 -3 -14 -15 -123 -28 -242 l-23 -218 31 0 c44 0 52 21
65 190 7 80 17 153 22 163 8 15 21 17 91 15 l82 -3 18 -170 c9 -93 19 -176 22
-182 2 -8 21 -13 43 -13 l38 0 -18 173 c-9 94 -22 206 -27 247 -6 41 -20 149
-31 240 -11 91 -27 219 -35 285 -9 66 -21 165 -28 220 l-12 100 -56 3 -57 3
-7 -83z m94 -340 c12 -134 26 -252 31 -263 5 -11 11 -50 14 -87 l5 -68 -81 0
-80 0 6 58 c8 67 10 84 35 307 11 94 20 195 21 226 0 52 5 69 20 69 3 0 16
-109 29 -242z"/>
<path d="M5240 4590 l0 -30 70 0 70 0 2 -602 3 -603 37 -2 38 -3 2 602 3 603
63 3 c61 3 62 3 62 32 l0 30 -175 0 -175 0 0 -30z"/>
<path d="M5676 4605 c-12 -33 4 -45 65 -45 l59 0 2 -602 3 -603 35 0 35 0 5
600 5 600 68 3 c67 3 67 3 67 32 l0 30 -169 0 c-141 0 -170 -2 -175 -15z"/>
<path d="M6722 3988 l3 -633 43 -3 44 -3 -4 535 c-1 295 -1 536 2 536 3 0 12
-57 19 -126 7 -69 22 -176 32 -237 11 -62 35 -211 55 -332 56 -353 57 -360 68
-367 6 -4 32 -8 59 -8 l47 0 0 635 0 635 -40 0 -40 0 3 -497 c3 -274 8 -517
12 -540 4 -26 3 -43 -3 -43 -5 0 -17 62 -26 138 -10 75 -21 146 -26 157 -5 11
-19 97 -31 190 -12 94 -28 206 -36 250 -13 76 -52 321 -53 338 0 4 -29 7 -65
7 l-65 0 2 -632z"/>
<path d="M7657 4613 c-8 -7 -10 -1237 -2 -1245 3 -2 18 -3 35 0 l30 4 0 305
c0 240 3 304 13 300 6 -2 11 -10 9 -16 -1 -7 6 -38 15 -69 10 -31 18 -61 18
-67 0 -5 4 -16 8 -23 5 -6 16 -42 26 -80 12 -44 22 -66 31 -64 11 3 11 0 1
-12 -10 -12 -10 -21 2 -48 8 -18 23 -64 33 -103 9 -38 21 -74 25 -79 4 -5 5
-14 3 -21 -3 -6 3 -18 12 -26 16 -12 17 -12 11 4 -3 9 -2 17 2 17 5 0 11 -6
14 -14 4 -9 14 -12 26 -9 22 6 27 18 12 28 -5 3 -13 20 -17 38 -3 17 -11 43
-17 57 -5 14 -11 35 -13 48 -1 13 -8 30 -14 37 -7 8 -9 18 -6 24 7 11 -14 61
-26 61 -4 0 -8 -6 -8 -14 0 -8 -4 -18 -10 -21 -11 -7 -3 23 11 41 5 6 4 28 -2
50 -18 70 -19 71 -34 50 -10 -13 -11 -24 -4 -37 5 -11 7 -19 5 -19 -3 0 -10 9
-16 21 -9 15 -8 24 0 35 7 7 10 25 8 39 -3 15 -1 22 5 18 7 -4 8 1 3 13 -4 10
-8 24 -9 29 -1 6 -6 13 -10 16 -5 3 -10 17 -11 30 -2 13 -9 43 -15 67 -10 37
-9 53 10 120 12 42 25 85 31 95 14 26 48 160 42 168 -2 4 3 10 12 13 10 4 14
12 10 23 -4 9 -3 19 2 22 5 3 12 20 16 36 7 28 7 29 -8 10 -15 -20 -15 -20 -9
3 3 13 1 22 -6 22 -6 0 -11 5 -11 11 0 5 5 7 11 3 8 -4 9 1 5 17 -6 20 -5 21
4 6 6 -9 8 -22 5 -27 -3 -5 0 -7 8 -4 8 3 20 25 26 48 6 24 13 50 16 57 4 10
-4 15 -23 16 -21 1 -32 -4 -41 -20 -16 -31 -40 -130 -34 -140 3 -5 -2 -14 -10
-20 -17 -13 -70 -203 -61 -218 3 -5 0 -8 -7 -7 -6 2 -14 -3 -16 -9 -3 -8 3
-13 14 -14 15 0 14 -2 -4 -9 -23 -9 -41 -68 -28 -89 3 -6 1 -11 -5 -11 -7 0
-9 -9 -5 -22 4 -15 3 -19 -3 -10 -5 7 -15 11 -23 9 -8 -2 -11 -2 -7 0 4 2 7
127 8 277 0 243 -1 274 -16 280 -20 8 -39 8 -47 -1z"/>
<path d="M8145 4608 c-3 -7 -4 -290 -3 -628 l3 -615 35 0 35 0 3 619 c2 489 0
621 -10 628 -20 12 -58 9 -63 -4z"/>
<path d="M8450 3996 l0 -625 123 -3 c135 -3 147 -2 147 18 0 10 -21 13 -90 13
-57 0 -90 -4 -90 -11 0 -6 -6 -6 -15 2 -12 10 -19 10 -27 2 -17 -17 -33 -15
-19 1 6 8 8 17 4 21 -4 4 5 2 20 -3 16 -6 29 -11 30 -11 1 0 1 128 -1 285 l-3
285 86 0 c84 0 85 0 85 25 0 24 -2 24 -82 27 l-83 3 -3 266 c-2 264 -2 266
-25 277 l-22 10 23 -1 c12 -1 22 -4 22 -7 0 -3 25 -3 55 -2 33 2 55 9 55 15 0
9 3 8 8 0 13 -21 56 -20 60 1 2 10 -1 22 -8 26 -6 4 -65 8 -131 9 l-119 2 0
-625z"/>
<path d="M8920 3995 c0 -407 4 -625 10 -626 6 -1 20 -2 33 -2 l22 -1 3 292 c1
193 -1 292 -8 292 -5 0 -10 5 -10 11 0 5 5 7 11 3 8 -4 9 1 5 17 -7 22 -6 23
8 6 12 -15 27 -18 88 -16 l73 2 3 -300 2 -301 35 -4 c20 -2 38 -2 40 1 3 2 5
283 5 623 0 674 3 638 -55 624 l-26 -7 1 -290 c1 -160 -1 -293 -4 -296 -9 -9
-158 -3 -176 7 -10 6 -11 10 -2 10 9 0 12 64 12 284 0 305 2 296 -51 296 -18
0 -19 -17 -19 -625z"/>
<path d="M9480 3990 c0 -535 2 -629 14 -624 8 3 67 6 132 7 144 2 162 21 25
25 -52 1 -101 7 -110 12 -10 6 -11 10 -3 10 9 0 12 126 12 594 0 643 3 606
-51 606 -19 0 -19 -16 -19 -630z"/>
<path d="M7300 4021 c-17 -16 -30 -38 -30 -52 1 -31 25 -63 41 -53 7 4 10 3 6
-3 -4 -6 4 -14 17 -17 100 -25 164 94 75 139 -43 23 -76 18 -109 -14z"/>
<path d="M7330 3733 c0 -67 -18 -214 -30 -238 -5 -11 -17 -49 -26 -85 -27
-110 -110 -271 -196 -382 -16 -21 -27 -42 -23 -48 9 -15 73 -42 84 -36 17 11
131 186 165 255 39 80 90 234 105 317 6 32 13 103 17 157 6 93 6 97 -13 97
-11 0 -35 3 -52 6 l-31 7 0 -50z"/>
<path d="M4395 2938 c-42 -15 -53 -26 -76 -72 -21 -44 -24 -67 -10 -94 5 -9
14 -29 22 -44 7 -16 18 -28 25 -28 7 0 14 -4 16 -10 5 -14 89 -24 142 -16 l46
7 0 63 0 63 -50 2 c-30 0 -50 -4 -50 -10 0 -7 15 -10 39 -7 39 3 40 3 33 -27
-3 -16 -6 -39 -6 -50 0 -17 -8 -21 -44 -23 -80 -5 -136 38 -134 106 0 12 0 31
1 41 1 11 17 36 37 56 32 33 39 36 72 30 45 -8 52 -12 52 -31 0 -8 10 -14 25
-14 37 0 31 23 -13 48 -32 18 -91 23 -127 10z"/>
<path d="M9127 2943 c-48 -12 -104 -103 -93 -149 4 -14 11 -22 16 -19 6 3 10
2 10 -4 0 -5 -5 -11 -11 -13 -15 -5 14 -63 36 -72 24 -9 27 -8 20 7 -4 6 0 4
8 -5 18 -22 80 -24 97 -3 7 8 18 15 24 15 6 0 4 -5 -4 -11 -12 -8 -12 -10 -1
-7 8 2 21 14 29 26 14 21 13 22 -10 22 -13 0 -30 -9 -38 -20 -22 -30 -66 -26
-101 10 -28 27 -30 34 -28 99 1 39 5 68 10 66 4 -3 10 3 14 14 12 38 86 37
113 0 15 -21 37 -25 48 -8 8 14 -36 50 -53 44 -7 -2 -13 0 -13 5 0 10 -40 12
-73 3z"/>
<path d="M4900 2810 c0 -107 3 -130 15 -130 10 0 15 15 17 58 l3 57 53 3 c51
3 52 2 58 -28 4 -17 11 -33 15 -36 5 -3 6 -16 3 -30 -5 -21 -3 -24 19 -24 24
0 25 2 20 38 -7 46 -21 74 -33 67 -14 -9 9 47 28 68 12 13 13 24 6 45 -5 15
-15 27 -21 27 -6 0 -15 3 -19 8 -4 4 -43 7 -86 7 l-78 0 0 -130z"/>
<path d="M6030 2841 c0 -55 4 -111 9 -124 25 -64 197 -59 215 6 3 12 6 66 6
120 0 80 -3 97 -15 97 -12 0 -15 -17 -15 -92 0 -83 -2 -94 -26 -125 -23 -31
-31 -34 -68 -31 -37 2 -43 6 -58 41 -13 27 -18 65 -18 123 0 68 -3 84 -15 84
-12 0 -15 -18 -15 -99z"/>
<path d="M6600 2811 l0 -131 26 0 c24 0 25 3 24 48 -1 26 -1 52 -1 58 1 7 26
13 61 16 68 5 100 27 100 68 0 53 -20 65 -119 68 l-91 4 0 -131z"/>
<path d="M8571 2825 c1 -63 -1 -118 -6 -122 -4 -5 -5 -2 -1 5 5 8 2 18 -7 25
-8 7 -28 36 -43 65 -15 30 -33 56 -40 59 -6 2 -14 13 -17 24 -3 12 -11 17 -21
13 -13 -5 -13 -9 1 -40 13 -26 21 -33 37 -29 12 3 15 2 9 -1 -19 -8 -16 -23
10 -58 12 -17 28 -43 35 -58 9 -22 18 -28 42 -28 l30 0 0 130 c0 112 -2 130
-16 130 -13 0 -15 -16 -13 -115z"/>
</g>
</svg>
