<?xml version="1.0" standalone="no"?>
<!DOCTYPE svg PUBLIC "-//W3C//DTD SVG 20010904//EN"
 "http://www.w3.org/TR/2001/REC-SVG-20010904/DTD/svg10.dtd">
<svg version="1.0" xmlns="http://www.w3.org/2000/svg"
 width="64.000000pt" height="64.000000pt" viewBox="0 0 64.000000 64.000000"
 preserveAspectRatio="xMidYMid meet">
<metadata>
Created by potrace 1.16, written by Peter Selinger 2001-2019
</metadata>
<g transform="translate(0.000000,64.000000) scale(0.100000,-0.100000)"
fill="#FFF" stroke="none">
<path d="M200 589 c-60 -27 -117 -83 -146 -144 -19 -39 -24 -67 -24 -125 0
-88 22 -145 78 -204 57 -59 122 -86 212 -86 90 0 155 27 212 86 56 59 78 116
78 204 0 58 -5 86 -24 125 -29 61 -86 117 -146 144 -62 28 -178 28 -240 0z
m225 -28 c100 -45 155 -131 155 -240 0 -79 -22 -132 -75 -186 -54 -53 -107
-75 -186 -75 -151 0 -259 108 -259 260 0 107 49 188 142 234 65 32 161 35 223
7z"/>
<path d="M215 541 c-49 -23 -99 -74 -119 -123 -24 -57 -21 -155 7 -208 40 -78
64 -62 26 17 -31 64 -24 157 16 215 84 118 266 118 350 0 40 -58 47 -151 16
-215 -25 -52 -26 -57 -6 -57 27 0 55 78 55 150 0 104 -53 187 -142 224 -52 22
-153 20 -203 -3z"/>
<path d="M310 450 c0 -13 -7 -20 -18 -20 -28 0 -42 -20 -42 -60 0 -44 15 -60
56 -60 31 0 64 -21 64 -40 0 -5 -8 -16 -17 -26 -17 -17 -18 -16 -21 19 -4 48
-20 48 -24 0 l-3 -38 -20 23 c-24 27 -35 28 -35 4 0 -23 19 -42 42 -42 11 0
18 -7 18 -20 0 -11 5 -20 10 -20 6 0 10 9 10 20 0 13 7 20 18 20 28 0 42 20
42 60 0 40 -14 60 -42 60 -14 0 -18 8 -18 35 0 47 -18 45 -22 -2 -3 -35 -4
-36 -20 -19 -22 22 -22 30 -2 50 21 22 51 20 71 -4 10 -11 21 -20 25 -20 12 0
9 35 -4 48 -7 7 -20 12 -30 12 -11 0 -18 7 -18 20 0 11 -4 20 -10 20 -5 0 -10
-9 -10 -20z"/>
</g>
</svg>
