<?xml version="1.0" standalone="no"?>
<!DOCTYPE svg PUBLIC "-//W3C//DTD SVG 20010904//EN"
 "http://www.w3.org/TR/2001/REC-SVG-20010904/DTD/svg10.dtd">
<svg version="1.0" xmlns="http://www.w3.org/2000/svg"
 width="64.000000pt" height="64.000000pt" viewBox="0 0 64.000000 64.000000"
 preserveAspectRatio="xMidYMid meet">

<g transform="translate(0.000000,64.000000) scale(0.100000,-0.100000)"
fill="#FFF" stroke="none">
<path d="M5 547 c-3 -7 -4 -114 -3 -237 l3 -225 68 -3 68 -3 -3 33 c-2 24 1
33 12 33 11 0 14 -9 12 -32 l-3 -33 71 0 71 0 -3 33 c-2 23 1 32 12 32 11 0
14 -9 12 -32 l-3 -33 50 0 c40 0 54 -4 63 -20 7 -11 22 -20 33 -20 12 0 26 -5
33 -12 9 -9 15 -9 24 0 7 7 20 12 30 12 22 0 68 46 68 68 0 10 5 23 12 30 8 8
8 15 0 25 -8 9 -13 80 -14 203 l-3 189 -303 3 c-239 2 -304 0 -307 -11z m595
-164 c-1 -134 -3 -155 -14 -140 -7 9 -22 17 -33 17 -10 0 -24 5 -31 12 -9 9
-15 9 -24 0 -7 -7 -20 -12 -30 -12 -22 0 -68 -46 -68 -68 0 -10 -5 -23 -12
-30 -9 -9 -9 -15 0 -24 21 -21 14 -38 -16 -38 -23 0 -28 4 -27 26 0 34 -28 54
-52 38 -10 -6 -18 -23 -18 -38 1 -24 -2 -26 -45 -26 -43 0 -46 2 -45 26 0 15
-8 32 -17 38 -25 16 -53 -4 -53 -38 1 -24 -2 -26 -47 -26 l-48 0 0 220 0 220
290 0 290 0 0 -157z m-49 -143 c10 0 19 -7 19 -15 0 -8 6 -15 14 -15 16 0 25
-45 18 -90 -2 -17 -10 -30 -18 -30 -8 0 -14 -6 -14 -14 0 -8 -13 -16 -30 -18
-45 -7 -90 2 -90 18 0 8 -6 14 -14 14 -16 0 -25 45 -18 90 2 17 10 30 18 30 8
0 14 6 14 14 0 14 42 26 68 19 8 -1 22 -3 33 -3z"/>
<path d="M140 455 c-19 -20 -22 -32 -18 -69 5 -39 2 -47 -18 -61 -25 -16 -49
-53 -40 -62 3 -3 16 8 30 24 24 28 30 30 96 30 66 0 72 -2 96 -30 14 -16 27
-27 31 -24 8 9 -23 54 -46 66 -15 9 -18 18 -13 56 4 38 1 50 -18 70 -14 15
-35 25 -50 25 -15 0 -36 -10 -50 -25z m84 -11 c32 -32 8 -114 -34 -114 -24 0
-50 37 -50 72 0 31 23 58 50 58 10 0 26 -7 34 -16z"/>
<path d="M340 410 c0 -6 40 -10 100 -10 60 0 100 4 100 10 0 6 -40 10 -100 10
-60 0 -100 -4 -100 -10z"/>
<path d="M340 350 c0 -6 27 -10 60 -10 33 0 60 4 60 10 0 6 -27 10 -60 10 -33
0 -60 -4 -60 -10z"/>
<path d="M480 350 c0 -5 14 -10 30 -10 17 0 30 5 30 10 0 6 -13 10 -30 10 -16
0 -30 -4 -30 -10z"/>
<path d="M50 220 c0 -11 5 -20 10 -20 6 0 10 9 10 20 0 11 -4 20 -10 20 -5 0
-10 -9 -10 -20z"/>
<path d="M100 220 c0 -11 5 -20 10 -20 6 0 10 9 10 20 0 11 -4 20 -10 20 -5 0
-10 -9 -10 -20z"/>
<path d="M150 220 c0 -11 5 -20 10 -20 6 0 10 9 10 20 0 11 -4 20 -10 20 -5 0
-10 -9 -10 -20z"/>
<path d="M200 220 c0 -11 5 -20 10 -20 6 0 10 9 10 20 0 11 -4 20 -10 20 -5 0
-10 -9 -10 -20z"/>
<path d="M250 220 c0 -11 5 -20 10 -20 6 0 10 9 10 20 0 11 -4 20 -10 20 -5 0
-10 -9 -10 -20z"/>
<path d="M300 220 c0 -11 5 -20 10 -20 6 0 10 9 10 20 0 11 -4 20 -10 20 -5 0
-10 -9 -10 -20z"/>
<path d="M350 220 c0 -11 5 -20 10 -20 6 0 10 9 10 20 0 11 -4 20 -10 20 -5 0
-10 -9 -10 -20z"/>
</g>
</svg>
