<?xml version="1.0" standalone="no"?>
<!DOCTYPE svg PUBLIC "-//W3C//DTD SVG 20010904//EN"
 "http://www.w3.org/TR/2001/REC-SVG-20010904/DTD/svg10.dtd">
<svg version="1.0" xmlns="http://www.w3.org/2000/svg"
 width="64.000000pt" height="64.000000pt" viewBox="0 0 64.000000 64.000000"
 preserveAspectRatio="xMidYMid meet">
<metadata>
Created by potrace 1.16, written by Peter Selinger 2001-2019
</metadata>
<g transform="translate(0.000000,64.000000) scale(0.100000,-0.100000)"
fill="#FFF" stroke="none">
<path d="M85 587 c-3 -7 -4 -131 -3 -277 l3 -265 208 -3 207 -2 0 30 c0 16 5
30 10 30 6 0 10 20 10 44 0 36 4 46 20 51 19 6 20 15 20 176 0 162 -1 169 -20
169 -16 0 -20 7 -20 30 l0 30 -215 0 c-165 0 -217 -3 -220 -13z m410 -237 l0
-225 -147 -3 -148 -3 0 181 c0 113 -4 180 -10 180 -6 0 -10 -67 -10 -180 l0
-180 -40 0 -40 0 0 218 c0 158 3 221 12 230 9 9 62 12 198 10 l185 -3 0 -225z"/>
<path d="M280 440 c-16 -16 -20 -33 -20 -90 0 -93 16 -110 100 -110 73 0 79
16 9 22 -28 3 -58 13 -67 22 -23 23 -23 109 0 132 21 22 74 22 95 2 19 -19 31
-108 14 -108 -6 0 -11 18 -11 43 0 49 -13 67 -50 67 -14 0 -31 -5 -38 -12 -16
-16 -16 -100 0 -116 7 -7 38 -12 70 -12 l58 0 0 70 c0 90 -17 110 -90 110 -37
0 -55 -5 -70 -20z"/>
</g>
</svg>
