<?xml version="1.0" standalone="no"?>
<!DOCTYPE svg PUBLIC "-//W3C//DTD SVG 20010904//EN"
 "http://www.w3.org/TR/2001/REC-SVG-20010904/DTD/svg10.dtd">
<svg version="1.0" xmlns="http://www.w3.org/2000/svg"
 width="64.000000pt" height="64.000000pt" viewBox="0 0 64.000000 64.000000"
 preserveAspectRatio="xMidYMid meet">
<metadata>
Created by potrace 1.16, written by Peter Selinger 2001-2019
</metadata>
<g transform="translate(0.000000,64.000000) scale(0.100000,-0.100000)"
fill="#FFFFFF" stroke="none">
<path d="M170 589 c-60 -27 -117 -83 -146 -144 -19 -39 -24 -67 -24 -125 0
-88 22 -145 78 -204 57 -59 122 -86 212 -86 58 0 86 6 125 24 61 29 117 86
144 146 11 25 34 58 50 74 39 37 39 55 0 92 -16 16 -39 49 -50 74 -27 60 -83
117 -144 146 -67 32 -179 33 -245 3z m227 -28 c40 -19 123 -94 123 -112 0 -20
-27 -7 -53 26 -27 34 -57 46 -57 23 0 -7 12 -24 26 -39 14 -15 29 -43 34 -63
l8 -36 -129 0 -129 0 0 -40 0 -40 129 0 129 0 -8 -36 c-5 -19 -15 -43 -24 -53
-9 -10 -16 -23 -16 -29 0 -21 29 -13 46 13 16 24 44 34 44 16 0 -18 -83 -93
-123 -112 -64 -28 -160 -26 -225 7 -93 46 -142 127 -142 234 0 107 49 188 142
234 65 33 161 35 225 7z m168 -201 l39 -40 -41 -42 c-23 -23 -46 -39 -49 -35
-4 4 -2 13 4 19 33 33 15 38 -133 38 -138 0 -145 1 -145 20 0 19 7 20 145 20
120 0 145 3 145 14 0 8 -4 18 -10 21 -12 7 -13 25 -2 25 4 0 26 -18 47 -40z"/>
<path d="M183 529 c-82 -40 -123 -111 -123 -212 0 -67 28 -139 62 -161 22 -14
35 1 20 22 -76 107 -68 223 19 297 43 35 73 46 131 47 34 0 48 4 48 14 0 23
-106 18 -157 -7z"/>
</g>
</svg>
