<?xml version="1.0" standalone="no"?>
<!DOCTYPE svg PUBLIC "-//W3C//DTD SVG 20010904//EN"
 "http://www.w3.org/TR/2001/REC-SVG-20010904/DTD/svg10.dtd">
<svg version="1.0" xmlns="http://www.w3.org/2000/svg"
 width="64.000000pt" height="64.000000pt" viewBox="0 0 64.000000 64.000000"
 preserveAspectRatio="xMidYMid meet">
<metadata>
Created by potrace 1.16, written by Peter Selinger 2001-2019
</metadata>
<g transform="translate(0.000000,64.000000) scale(0.100000,-0.100000)"
fill="#FFFFFF" stroke="none">
<path d="M0 510 c0 -6 77 -11 198 -12 l197 -3 3 -137 3 -138 -181 0 -180 0 0
50 c0 28 -4 50 -10 50 -5 0 -10 -22 -10 -50 0 -27 -4 -50 -10 -50 -6 0 -10
-27 -10 -60 l0 -60 40 0 c27 0 40 -4 40 -13 0 -43 92 -64 123 -29 10 10 17 24
17 30 0 9 33 12 110 12 85 0 110 -3 110 -13 0 -43 92 -64 123 -29 10 10 17 24
17 30 0 7 14 12 30 12 l30 0 0 60 c0 33 -4 60 -10 60 -5 0 -10 15 -10 33 0 48
-77 161 -113 165 -15 2 -27 9 -27 18 0 8 -4 14 -10 14 -5 0 -10 -7 -10 -15 0
-8 -9 -15 -20 -15 -17 0 -20 7 -20 50 l0 50 -210 0 c-130 0 -210 -4 -210 -10z
m510 -120 c11 -7 4 -10 -27 -10 l-43 0 0 -50 0 -50 54 0 c61 0 72 9 55 42 -6
13 -7 19 -1 13 15 -15 52 -88 52 -102 0 -10 -24 -13 -90 -13 l-90 0 0 90 0 90
38 0 c20 0 44 -5 52 -10z m108 -228 c3 -32 -19 -55 -36 -37 -4 4 -1 10 5 12
15 5 17 43 3 43 -5 0 -10 -7 -10 -17 0 -15 -1 -15 -18 0 -24 22 -80 22 -104 0
-17 -15 -18 -15 -18 0 0 10 -4 17 -10 17 -5 0 -10 -9 -10 -20 0 -11 5 -20 10
-20 6 0 10 -4 10 -10 0 -6 -43 -10 -110 -10 -67 0 -110 4 -110 10 0 6 5 10 10
10 6 0 10 9 10 20 0 11 -4 20 -10 20 -5 0 -10 -7 -10 -17 0 -15 -1 -15 -18 0
-24 22 -80 22 -104 0 -17 -15 -18 -15 -18 0 0 10 -4 17 -10 17 -5 0 -10 -9
-10 -20 0 -11 5 -20 10 -20 6 0 10 -5 10 -11 0 -6 -12 -9 -27 -7 -23 3 -27 7
-26 36 1 17 2 34 2 37 1 3 133 4 294 3 l292 -3 3 -33z"/>
</g>
</svg>
