<?xml version="1.0" standalone="no"?>
<!DOCTYPE svg PUBLIC "-//W3C//DTD SVG 20010904//EN"
 "http://www.w3.org/TR/2001/REC-SVG-20010904/DTD/svg10.dtd">
<svg version="1.0" xmlns="http://www.w3.org/2000/svg"
 width="64.000000pt" height="64.000000pt" viewBox="0 0 64.000000 64.000000"
 preserveAspectRatio="xMidYMid meet">
<metadata>
Created by potrace 1.16, written by Peter Selinger 2001-2019
</metadata>
<g transform="translate(0.000000,64.000000) scale(0.100000,-0.100000)"
fill="#000000" stroke="none">
<path d="M72 547 l-52 -53 0 -227 0 -227 230 0 230 0 0 62 0 62 49 -48 c39
-38 54 -47 77 -44 24 2 30 8 32 32 3 23 -6 38 -42 75 -34 35 -43 50 -36 61 15
23 12 118 -5 149 -8 16 -28 40 -45 54 -28 24 -30 31 -30 91 l0 66 -178 0 -178
0 -52 -53z m386 -19 l3 -48 -59 0 c-66 0 -111 -23 -147 -75 -19 -28 -23 -30
-77 -27 -36 2 -58 -1 -58 -8 0 -6 23 -10 55 -10 l55 0 0 -54 c0 -99 70 -166
172 -166 l59 0 -3 -38 -3 -37 -205 0 -205 0 -3 198 -2 197 60 0 60 0 0 60 0
61 148 -3 147 -3 3 -47z m16 -97 c43 -29 66 -70 66 -121 0 -80 -60 -140 -140
-140 -142 0 -193 182 -74 261 38 25 110 25 148 0z"/>
<path d="M314 396 c-50 -50 -50 -122 0 -172 30 -30 40 -34 86 -34 46 0 56 4
86 34 30 30 34 40 34 86 0 46 -4 56 -34 86 -30 30 -40 34 -86 34 -46 0 -56 -4
-86 -34z m151 -21 c58 -57 15 -155 -67 -155 -54 0 -88 35 -88 90 0 56 34 90
90 90 30 0 47 -6 65 -25z"/>
</g>
</svg>
